<?xml version="1.0" encoding="utf-8"?>
<!-- Generator: Adobe Illustrator 16.0.4, SVG Export Plug-In . SVG Version: 6.00 Build 0)  -->
<!DOCTYPE svg PUBLIC "-//W3C//DTD SVG 1.1//EN" "http://www.w3.org/Graphics/SVG/1.1/DTD/svg11.dtd">
<svg version="1.1" id="Layer_1" xmlns="http://www.w3.org/2000/svg" xmlns:xlink="http://www.w3.org/1999/xlink" x="0px" y="0px"
	 width="50px" height="50px" viewBox="0 0 50 50" enable-background="new 0 0 50 50" xml:space="preserve">
<path d="M31.49,24.128c0-0.165-0.059-0.286-0.176-0.363c-0.115-0.077-0.361-0.157-0.738-0.241c-0.691-0.154-1.154-0.322-1.389-0.502
	c-0.232-0.178-0.35-0.457-0.35-0.835c0-0.424,0.154-0.76,0.459-1.009c0.309-0.249,0.725-0.373,1.246-0.373
	c0.488,0,0.889,0.129,1.191,0.386c0.311,0.258,0.479,0.605,0.512,1.043h-0.889c-0.016-0.208-0.105-0.373-0.271-0.494
	c-0.168-0.123-0.383-0.184-0.646-0.184c-0.234,0-0.414,0.051-0.545,0.154c-0.131,0.101-0.195,0.244-0.195,0.426
	c0,0.131,0.066,0.232,0.205,0.303c0.135,0.072,0.42,0.156,0.855,0.253c0.637,0.143,1.062,0.307,1.273,0.494
	c0.217,0.184,0.32,0.48,0.32,0.889c0,0.41-0.16,0.735-0.482,0.976c-0.322,0.241-0.76,0.361-1.311,0.361
	c-0.553,0-0.984-0.127-1.297-0.383c-0.311-0.255-0.477-0.619-0.498-1.09h0.879c0.012,0.232,0.096,0.41,0.252,0.535
	c0.158,0.125,0.379,0.188,0.664,0.188c0.291,0,0.52-0.047,0.682-0.142C31.408,24.424,31.49,24.294,31.49,24.128z M24.533,25.292
	h0.436l0.684-3.438l0.703,3.438h0.436h0.436l1.215-4.368H27.98H27.52l-0.727,3.17H26.79l-0.629-3.17h-0.488H25.19l-0.625,3.197
	l-0.729-3.197H23.36h-0.476l1.218,4.368H24.533z M22.508,24.903v-0.386h-2.403v-1.139h2.138v-0.376v-0.375h-2.138V21.7h2.304v-0.389
	v-0.386h-3.216v4.368h3.315V24.903L22.508,24.903z M14.752,20.925v4.368h0.429h0.426v-3.149l1.802,3.149h0.454h0.453v-4.368h-0.428
	h-0.425v3.066l-1.754-3.066H15.23H14.752z M38.393,11.157v17.805h-2.916v2.839h-6.186l-4.203,4.203V35.93l-2.916,2.913v-7.042
	H11.607V13.997h2.916v-2.84H38.393z M34.305,15.17H15.698h-0.589h-0.586h-1.739v15.457h10.563v5.381l1.739-1.74l0.586-0.586
	l0.589-0.586l2.469-2.469h0.074h0.827h0.832h3.841v-1.666v-0.587v-0.588V15.17L34.305,15.17z M37.217,12.331h-21.52v1.666h19.779
	v13.79h1.738L37.217,12.331L37.217,12.331z"/>
</svg>
